M48
;Layer_Color=9474304
;FILE_FORMAT=2:4
INCH,LZ
;TYPE=PLATED
T1F00S00C0.0150
T2F00S00C0.0170
T3F00S00C0.0280
T4F00S00C0.0350
T5F00S00C0.0354
T6F00S00C0.0394
T7F00S00C0.0510
T8F00S00C0.0591
T9F00S00C0.1181
T10F00S00C0.1370
T11F00S00C0.1378
%
T01
X07875Y02475
X0795
X08025
X079875Y0255
X08025Y02625
X0795
X079875Y027
X080625
X081375
Y0285
Y03
X080625
X079125
X078375
Y0285
X079125
X079875
X0795Y02775
X07875
X079125Y027
X078375
X08475Y03075
X0855
X08625
X077625Y03
X076875
X076125
X075375
X074625
X073875
X073125
X072375
X071625
X070875
X0705Y02925
X072
X072375Y0285
Y027
X07275Y02625
X072
X072375Y0255
X07275Y02475
X0735
X07425
X075
X07575
X0765
X07725
X078
X077625Y0255
X076875
X07725Y02625
X077625Y027
X078Y02775
X07725
X077625Y0285
X075375
X074625
Y027
X075375
X076125
X07575Y02625
X075
X07425
X074625Y0255
X075375
X073875
Y027
X072Y02475
X07125
X0705
X06975
X069
X06825
X0675
X06675
Y02625
X06825
X068625Y027
X067875
X06825Y02775
X067875Y0285
Y03
X067125
X0675Y03075
X06825
X066
X06525
X06375
X063375Y03
X0645Y02775
X064125Y027
Y0255
X062625
X068625
X070125
X0705Y02625
Y02775
X06675
X06225Y02625
X0615
X061875Y0255
X060375
X059625
X06Y02625
X05925
X059625Y027
X060375
X05925Y02775
X059625Y0285
X06Y02925
X05925
X059625Y03
X060375
X061125
X06075Y03075
X06
X05925
X0585
X05775
X058875Y03
X058125Y0285
X057375
X05775Y02775
X058125Y027
X057375
X05775Y02625
X057375Y0255
X055875
X0555Y02625
X054
X05325
X053625Y027
X054Y02775
X053625Y0285
Y0255
X052125
X051375
X05175Y02625
X052125Y027
X051375
X049875
X05025Y02775
X0495
Y02625
X05025
X049875Y0255
X048Y02625
X047625Y027
X048Y02775
X04725
X046875Y0285
X04725Y03075
X0495
X05025
X04725Y02475
X0465
X04575
X045
X04425
X0435
X04275
X042
X042375Y0255
X042Y02625
X042375Y027
X043125
X043875
X044625
X045Y02625
X04575
X046125Y0255
X045375
X044625
X04425Y02625
Y02775
X0435
X04275
X042
X04125
X0405
X040875Y0285
X041625
X042375
X043125
X0435Y03075
X04425
X045
X046125Y0285
X0465Y02775
X041625Y027
X040875
X04125Y03075
X0405
X03825
X0375
X03675
X036
X036375Y0315
X037125
X03675Y03225
X036
X03525
X0345
X034875Y0315
X035625
Y033
X036Y03375
X03675
X0375
X03825
X039
X039375Y0345
X038625
X039Y03525
Y03675
X03825
X03675
X036
X03525
X0345
X03375
X034125Y0375
X034875
X035625
X036375
X036Y03825
X03525
X0345
X03375
X034125Y039
X034875
X035625
X036375
X036Y03975
X03525
X0345
X03375
X034125Y0405
X034875
X035625
X036375
X036Y04125
X03525
X0345
X03375
X034125Y042
X034875
X035625
X036375
X036Y04275
X03525
X0345
X03375
X034875Y0435
X035625
X036375
X036Y04425
X036375Y045
X036Y04575
X0375
X03825
X039
X03975
X040125Y0465
X040875
X041625
X042375
X043125
X043875
X044625
X045375
Y0435
X044625
X04425Y04275
X043875Y042
X043125
X04275Y04275
X042375Y0435
X041625
X040875
X04125Y04275
X040875Y042
X038625
X037875
X03825Y04275
X0375
X037875Y0435
X038625
Y045
Y0465
X039375
X037875
X037125
X034875
X034125
X0375Y04425
X03825Y04125
X039
Y03975
X03825
X039Y03825
X042
X04275
X0435
X04425
X045
X04575
X0465
X046125Y039
X045375
X044625
X043875
X043125
X042375
X041625
Y036
X042Y03525
X042375Y0345
X043125
X0435Y03375
X04425
X044625Y033
X043875
X043125
X042375
X041625
X042Y03375
X04275
Y03225
X0435
X04425
X045
X044625Y0315
X043875
X043125
X042Y03225
X03975
X039
X040125Y0315
X041625Y0345
X04425Y03525
X045
X045375Y0345
X04575Y03375
X046125Y0315
X044625Y036
X043875
X04425Y03675
X045
X044625Y0375
X043875
X0435Y03675
X04425Y03975
X044625Y0405
X04425Y04125
X04275
X0465
X046125Y042
X035625Y036
X034875
X034125
X03375Y03525
X03525
X036
X035625Y0345
X047625
X048Y03375
X04875
X0495
X051
X0525
X05325
X055125Y0345
X055875
X05625Y03375
X05775
X058125Y033
X058875
X05925Y03375
X06
X06075
X0615
X06225
X061875Y0345
X061125
X060375
X059625
X058875
X05925Y03525
X06
X06075
X0615
X06225
X061875Y036
X061125
X060375
X059625
X06Y03675
X06075
Y03825
X060375Y039
X06075Y03975
X06
X05925
X059625Y0405
X060375
X06Y04125
X05925
X059625Y042
X061125
X061875
X06225Y04275
X0615
X06075
X061125Y0435
X061875
X06225Y04425
X0615
X06075
X06
X05925
X059625Y045
X060375
X061125
X061875
Y0465
X06Y04575
X05925
X0585
X058875Y045
X058125
X057Y04425
X055875Y045
X0555Y04575
X054375Y045
Y0435
X053625
X052875
X052125
X0525Y04275
X05325
X054
X054375Y042
X053625
X052125
X0525Y04125
X05175
X052125Y0405
X052875
X05175Y03975
X051375Y039
X051Y03825
X051375Y0375
X050625
X049875
X049125
X048375
X047625
X048Y03825
X04875
X0495
X049875Y039
X049125
X048375
X047625
X046875
X04725Y03975
X048
X04875
X0495
X049125Y0405
X048375
X047625
X048Y04125
X04875
X049125Y042
X048375
X04875Y04275
X0495
X049875Y0435
X050625
X051Y04425
X050625Y045
X052125
X0525Y04575
X05325
X053625Y0465
X052875
X052125
X051375
X05175Y04575
X0495
X04725
X046875Y045
X047625Y0435
X04725Y04275
X046875Y042
X049125Y0435
X050625Y0405
X0525Y03825
X05325
X053625Y039
Y0375
X052875
X05325Y03675
X054
X05475
X0555
X05625
X055875Y0375
X055125
X0555Y03825
X055875Y039
X057375
Y0405
X056625
X055875
X055125
X0555Y04125
X05625
X057
X05775
X057375Y042
X056625
X055875
X05775Y04275
X060375Y0435
X0615Y04125
X06225
X061875Y0405
Y039
X06225Y03825
X061875Y0375
X059625
X058875
X05925Y03825
X0585
Y03675
X05925
X05775
X057375Y0375
Y036
X0555Y03525
X05475
X053625Y036
X052875
X0525Y03675
X051
X051375Y036
X050625
X049875
X049125
X048375
X047625
X046875
X04725Y03675
X048
X04875
X0495
X04725Y03825
Y03525
Y03375
X047625Y033
X048375Y0315
X049125
X046875
X05625Y03225
X057
X05775
X0585
X05925
X059625Y0315
X060375
X058875
X058125
X057375
Y033
X05325Y04425
X063
X06375
X0645
X06525
X066
X06675
X0675
X06825
X068625Y045
X067125
X066375
X065625
X064875
X064125
X063375
X062625
Y0435
X063375
X064125
X064875
Y042
X065625
X066375
X067125
X067875
X06825Y04275
X0675
X06675
X066
Y04125
X06675
X0675
X067125Y0405
X066375
X065625
X064875
X06525Y04125
X0645
X063375Y042
X062625
X063Y04275
X06375
Y03975
X06525
X066
X06675
X06825
X06975
X0705
X070875Y0405
Y042
X0705Y04275
X072
Y04425
Y04125
Y03975
X073125Y0405
X074625
X07425Y03975
X07575
X076125Y0405
X07575Y04125
X076125Y042
X0765Y04275
X07575
X076125Y0435
X0765Y04425
X07575
X076125Y045
X0765Y04575
X07575
X078
X077625Y045
X078Y04425
X077625Y0435
X078Y04275
X07725Y04125
X0765Y03825
X076125Y0375
X0765Y03675
X07725
X076875Y036
X076125
X075375
X074625
X075Y03675
X07575
Y03525
X0765
X07725
X076875Y0345
X076125
X075375
X074625
X075Y03525
Y03375
X07575
X0765
X07725
X076875Y033
X076125
X075375
X074625
X073875
X073125
X072375
X071625
X070875
X070125
X069375
X068625
X069Y03225
X06975
X0705
X07125
X072
X07275
X0735
X07425
X075
X07575
X0765
X07425Y03375
X0735
X07275
X072
X070875Y0345
X07125Y03525
X0705
X06975
X069
X06825
Y03675
X06675
X067125Y0375
X066375
X065625
X066Y03825
X06675
X0645
X06375
X062625Y0375
X063Y03525
X063375Y0345
X062625
X063Y03375
X063375Y033
X064875
X065625
X066Y03375
X06525
X0645
X064875Y0345
X065625
X066375
X067125
X06675Y03525
X066
X06525
X0645
X066375Y036
X067125
X070875
X07125Y03675
X070875Y0375
X069375Y0405
X07425Y04275
X0735Y03525
X069375Y0315
X068625
X067875
X067125
X065625
X0645Y03225
X063375Y0315
X06825Y03225
X0675Y04575
X078375Y045
Y0435
X079875
X08025Y04275
X081
X081375Y042
X080625
X081375Y0405
X084375
X08475Y04125
X084
X084375Y042
X085125
X08475Y04275
X084
X08325
X083625Y0435
X084375
X085125
Y045
X08475Y04575
X085125Y0465
X084375
X084Y04425
X08325
X08175
X081
X081375Y045
X082125
X08175Y04575
X081
X082125Y0435
X083625Y042
X084Y03975
X085125Y039
Y0375
X084375
X086625
X087375
X088125
X0885Y03825
X08775
X087
X08625
Y03675
X087
X08775
X0885
X088125Y036
X087375
X086625
X087Y03525
X08625
Y03375
X086625Y033
X087Y03225
X08775
X08625
X0855
X085875Y0315
X086625
X085125
X084375Y033
X08325Y03225
X0825
X08175
X082125Y0315
X082875
X081375
X081Y03375
X0825
X082125Y0345
X0825Y03525
X082125Y036
X081Y03525
X07875
X078375Y036
X07875Y03675
X0795Y03825
X078375Y0405
Y042
Y0345
X07875Y03375
X078375Y033
X07875Y03225
X0795
X0885Y03525
X088125Y039
X087375
X08775Y03975
X0885
X088125Y0405
X087375
X08775Y04125
X0885
X088125Y042
X0885Y04275
Y04425
Y04575
X087
X087375Y0465
Y045
X087Y04425
X087375Y0435
X0885Y04725
X08625Y04875
X0855
X08475
X085125Y048
X084375
X08475Y04725
X082125Y048
X081375
X078Y04725
X07725
X0765
X07575
X075
X07425
X0735
X07275
X072
X07125
X0705
X06975
X069
X06825
X0675
X06675
X066
X06525
X065625Y048
X066375
X067125
X067875
X069375
X06975Y05025
X070125Y051
X070875
X071625
X072375
X073125
X073875
X07425Y05025
X075
X075375Y0495
X074625
X073875
X073125
X0735Y05025
X07275
Y05175
X072
X07125
X0705
X06975
X069
X069375Y051
X068625
X0675Y05175
Y05025
X06675
X066375Y0495
X06675Y04875
X066
X064875Y048
X067125Y054
X067875
X068625
X06825Y05475
Y05625
X069
X06975
X0705
X07125
X072
X072375Y0555
X071625
X070875
X07125Y05475
X072
X07275
X0735
X073875Y054
X073125
X072375
X071625
X070875
X0705Y05775
X06975
X069
X06825
X069375Y0585
X070125
X067125Y057
X0675Y05625
X06675
X065625Y0585
X064875
X064125
X0645Y05925
X06375
X063
X063375Y06
X064125
X065625
X066375
X062625
X07275Y04875
X0735
X07425
X075
X07575
X0765
X0585
X058125Y0495
X057375
X056625
X055875
X055125
X054375
X053625
X052875
X052125
X051375
X05175Y05025
X0525
X05325
X054
X05475
X0555
X05625
X057
X056625Y051
X055875
X054375
X053625
X052875
X052125
Y054
X0525Y05475
X05025
X0495
X04875
X048
X04725
X047625Y0555
X048375
X049125
X049875
X050625
Y057
X051375
X052125
X0525Y05775
X05175
X051
X05025
X0495
X04875
X048
X04725
X047625Y057
X048375
X049125
X049875
Y0585
X050625
X051375
X052125
X052875
X053625
X054Y05925
X05325
X0525
X05175
X051
X05025
X050625Y06
X051375
X052125
X052875
X053625
X054375
X055125
X0555Y05775
X05625
X056625Y0585
X057375
X058125
X060375
X061125
X055875Y057
X055125
X0555Y05625
X05475
X054
X054375Y0555
X055125
X05475Y05175
Y04875
X0555
X05625
X057
X057375Y048
X058125
X0585Y04725
X05775
X057
X05625
X056625Y048
X055875
X055125
X053625
X052875
X052125
X051375
X050625
X051Y04725
X05175
X0525
X05325
X054
X0495
X049125Y051
X0495Y05175
X050625Y0525
X051Y05325
X04875
X048
X04725
X047625Y054
X048375
X049125
X046875
Y0555
Y057
Y0585
Y06
X049875
X047625Y0525
X046875
X04725Y05175
X048Y05025
X047625Y0495
X045375
X04575Y05025
X045
Y05175
X04575
X0465
X046125Y0525
X045375
X044625
X043875
X04425Y05325
X045
X04575
X0465
X046125Y054
X045375
X044625
X043875
X043125
X0435Y05475
X04425
X045
X04575
X0465
X046125Y0555
X045375
X044625
X043875
Y057
X044625
X045375
X046125
X0465Y05775
X04575
X045
X04425
X0435
X043875Y0585
X044625
X045375
X046125
X0465Y05925
X04575
X045
X04425
X0435
X04275
X042
X04125
X041625Y06
X042375
X043125
X043875
X044625
X045375
X043125Y0585
X042375
X041625
X040875
X040125
X039375
X03975Y05775
X0405
X040875Y06
X040125
X039375
X0435Y05325
Y05175
X04425
Y04875
X045
X044625Y048
X043875
X043125
X042375
X041625
X040875
X040125
X039375
X038625
X037875
X037125
X036375
X036Y04875
X035625Y0495
Y051
Y0525
X03375Y05325
Y05175
Y05025
Y04875
X034125Y048
X0345Y04725
X03375
X0435Y04875
X04575Y04725
T02
X041063Y036142
X040512Y037717
X04Y039213
X039724Y039528
X039449Y040079
Y040827
X039213Y04185
X040256Y04498
X040984Y044567
X058701Y046772
X061378Y046457
X063681Y046476
Y045236
X070827Y044016
X070512Y040157
X068543Y040197
X076496Y037677
X077126Y045925
X077106Y046575
X078917Y046732
X079449Y046713
X07998Y046732
X080532
Y045866
X07998
X079468Y045886
X078917Y045906
X083976Y045768
X087067Y042264
X082638Y037717
X07937Y037697
Y032736
X082697Y032972
X087008Y047146
X075236Y052008
X074685
X074134
X073622Y052047
Y052638
X074134
X074685
X075236
X068091Y052717
Y052047
X067835Y050472
X063898Y051772
X063543Y052047
X063228Y051693
X063583Y055709
X065354Y054882
X06185Y054252
X060866Y051772
X059528Y05252
X057776Y052795
X055906Y052717
X053996Y05189
X054016Y05378
X05126Y055748
Y056378
X059882Y055984
X047283Y051181
X04689Y050315
X047165Y048583
X04937Y048582
X042913Y048819
Y049606
Y050591
Y051181
Y051968
Y052756
Y053543
Y054331
Y055118
Y055709
Y056496
Y057087
Y057874
X042126
X041339
Y057087
X040945Y056693
X040157
X03937
X038976Y057087
X038189
X037795Y056693
X038583
X039016Y057874
Y058661
Y059843
Y06063
X039764
X040551
X041339
X042126
X042913
X043701
X044488
X045276
X046063Y060236
X044193Y050197
X042126Y048819
X041339
X040551
X039764
X038976
X038189
X037402
X036614
X03622Y049213
Y05
Y050787
Y051575
Y052362
Y05315
Y053937
Y054626
Y055276
Y055866
X035748Y056339
X036063Y056693
X036457Y057008
X034961Y055472
X034449Y054921
X034055Y054528
X033661Y054134
X033268Y05374
X032874Y053346
T03
X039045Y031181
X036909Y045571
X044782Y044192
X047717Y044252
X054823Y035925
X053504Y031929
X071358Y043209
X075295
X06185Y060472
T04
X056677Y039673
X057677
X058677
X063055Y038681
X064055
X065055
T05
X059772Y032874
X060772
X061772
X062772
X06498Y049941
X06598
X056398Y051496
X055398
T06
X080354Y027795
X081417
T07
X050803Y045906
X054803
X057803
Y048906
X050803
T08
X063386Y025787
Y027362
Y028937
X065354
Y027362
Y025787
X067323
Y027362
Y028937
X069291
Y027362
Y025787
X07126
Y027362
Y028937
X073228
Y027362
Y025787
X061024
Y027362
Y028937
X058661
Y027362
Y025787
X056693
Y027362
Y028937
X054724
Y027362
Y025787
X052756
Y027362
Y028937
X050787
Y027362
Y025787
X048819
Y027362
Y028937
T09
X07874Y025787
X043307
T10
X034252Y033858
Y044882
X087795Y033858
X06811Y059449
X048425
T11
X081299Y025787
X040748
M30
